name rise42.5664peak47.7979fall81.9185.mot
datacolumns 19
datarows 23
range 4.25998000000000 4.29665400000000
endheader
time	ground_force1_vx	ground_force1_vy	ground_force1_vz	ground_force1_px	ground_force1_py	ground_force1_pz	ground_force2_vx	ground_force2_vy	ground_force2_vz	ground_force2_px	ground_force2_py	ground_force2_pz	ground_torque1_x	ground_torque1_y	ground_torque1_z	ground_torque2_x	ground_torque2_y	ground_torque2_z	
4.25998000000000	-34.82272200000000	781.39279999999997	53.37039000000000	0.06954300000000	0.00000000000000	0.09759500000000	-6.67275400000000	62.48945500000000	4.96995800000000	0.32467200000000	0.00000000000000	-0.06415500000000	0.00000000000000	14.65310000000000	0.00000000000000	0.00000000000000	2.69386500000000	0.00000000000000	
4.26164900000000	-35.13102000000000	779.59025899999995	53.09742400000000	0.06900000000000	0.00000000000000	0.09747600000000	-6.86615900000000	67.99022600000001	5.32420800000000	0.32664800000000	0.00000000000000	-0.06429600000000	0.00000000000000	14.58232500000000	0.00000000000000	0.00000000000000	2.92754400000000	0.00000000000000	
4.26331900000000	-35.45487700000000	777.70979499999999	52.80176800000000	0.06845900000000	0.00000000000000	0.09735400000000	-6.95761300000000	73.23723699999999	5.63984100000000	0.32848500000000	0.00000000000000	-0.06443100000000	0.00000000000000	14.51242900000000	0.00000000000000	0.00000000000000	3.14723700000000	0.00000000000000	
4.26499300000000	-35.79444600000000	775.74981300000002	52.48336500000000	0.06791800000000	0.00000000000000	0.09722900000000	-6.95098600000000	78.24146900000000	5.91742900000000	0.33019500000000	0.00000000000000	-0.06456100000000	0.00000000000000	14.44347600000000	0.00000000000000	0.00000000000000	3.35286800000000	0.00000000000000	
4.26664900000000	-36.14984500000000	773.70863999999995	52.14220400000000	0.06737800000000	0.00000000000000	0.09710000000000	-6.85307700000000	83.03237000000000	6.15918900000000	0.33178600000000	0.00000000000000	-0.06468800000000	0.00000000000000	14.37552500000000	0.00000000000000	0.00000000000000	3.54520600000000	0.00000000000000	
4.26831200000000	-36.52115200000000	771.58452000000000	51.77831300000000	0.06683700000000	0.00000000000000	0.09696700000000	-6.67265600000000	87.65284900000000	6.36851200000000	0.33326600000000	0.00000000000000	-0.06481300000000	0.00000000000000	14.30863400000000	0.00000000000000	0.00000000000000	3.72564400000000	0.00000000000000	
4.26998300000000	-36.90840800000000	769.37562400000002	51.39176900000000	0.06629500000000	0.00000000000000	0.09683100000000	-6.41952400000000	92.15403200000000	6.54948200000000	0.33464400000000	0.00000000000000	-0.06493600000000	0.00000000000000	14.24285600000000	0.00000000000000	0.00000000000000	3.89596700000000	0.00000000000000	
4.27165200000000	-37.31161000000000	767.08004300000005	50.98268600000000	0.06575200000000	0.00000000000000	0.09669200000000	-6.10364900000000	96.59024200000000	6.70642600000000	0.33592600000000	0.00000000000000	-0.06505800000000	0.00000000000000	14.17824100000000	0.00000000000000	0.00000000000000	4.05812500000000	0.00000000000000	
4.27331600000000	-37.73071300000000	764.69579899999997	50.55122700000000	0.06520800000000	0.00000000000000	0.09654900000000	-5.73443400000000	101.01458300000000	6.84351200000000	0.33711800000000	0.00000000000000	-0.06518100000000	0.00000000000000	14.11483600000000	0.00000000000000	0.00000000000000	4.21402800000000	0.00000000000000	
4.27497800000000	-38.16562700000000	762.22083899999996	50.09759100000000	0.06466300000000	0.00000000000000	0.09640300000000	-5.32016600000000	105.47535200000000	6.96443700000000	0.33822400000000	0.00000000000000	-0.06530300000000	0.00000000000000	14.05268300000000	0.00000000000000	0.00000000000000	4.36538600000000	0.00000000000000	
4.27665100000000	-38.61621300000000	759.65304500000002	49.62202200000000	0.06411500000000	0.00000000000000	0.09625400000000	-4.86764000000000	110.01342600000000	7.07219700000000	0.33925000000000	0.00000000000000	-0.06542700000000	0.00000000000000	13.99182000000000	0.00000000000000	0.00000000000000	4.51358000000000	0.00000000000000	
4.27832000000000	-39.08228500000000	756.99023599999998	49.12480500000000	0.06356500000000	0.00000000000000	0.09610100000000	-4.38196900000000	114.66064100000000	7.16895700000000	0.34020100000000	0.00000000000000	-0.06555300000000	0.00000000000000	13.93228200000000	0.00000000000000	0.00000000000000	4.65959000000000	0.00000000000000	
4.27998700000000	-39.56360300000000	754.23017000000004	48.60626400000000	0.06301100000000	0.00000000000000	0.09594600000000	-3.86654900000000	119.43911300000001	7.25599900000000	0.34108100000000	0.00000000000000	-0.06567900000000	0.00000000000000	13.87409800000000	0.00000000000000	0.00000000000000	4.80396300000000	0.00000000000000	
4.28164800000000	-40.05987500000000	751.37055399999997	48.06676100000000	0.06245500000000	0.00000000000000	0.09578700000000	-3.32317100000000	124.36138500000000	7.33375000000000	0.34189200000000	0.00000000000000	-0.06580800000000	0.00000000000000	13.81729300000000	0.00000000000000	0.00000000000000	4.94681200000000	0.00000000000000	
4.28331600000000	-40.57075400000000	748.40904100000000	47.50669800000000	0.06189500000000	0.00000000000000	0.09562500000000	-2.75222300000000	129.43123000000000	7.40186500000000	0.34264000000000	0.00000000000000	-0.06593800000000	0.00000000000000	13.76188600000000	0.00000000000000	0.00000000000000	5.08786100000000	0.00000000000000	
4.28498600000000	-41.09583400000000	745.34324400000003	46.92651300000000	0.06133100000000	0.00000000000000	0.09546100000000	-2.15297000000000	134.64493300000001	7.45935800000000	0.34332600000000	0.00000000000000	-0.06607100000000	0.00000000000000	13.70789000000000	0.00000000000000	0.00000000000000	5.22649900000000	0.00000000000000	
4.28665200000000	-41.63465100000000	742.17073900000003	46.32668100000000	0.06076300000000	0.00000000000000	0.09529400000000	-1.52386300000000	139.99287300000000	7.50474700000000	0.34395300000000	0.00000000000000	-0.06620600000000	0.00000000000000	13.65531300000000	0.00000000000000	0.00000000000000	5.36185200000000	0.00000000000000	
4.28832000000000	-42.18667900000000	738.88906799999995	45.70771000000000	0.06019000000000	0.00000000000000	0.09512400000000	-0.86286000000000	145.46122000000000	7.53622300000000	0.34452500000000	0.00000000000000	-0.06634300000000	0.00000000000000	13.60415700000000	0.00000000000000	0.00000000000000	5.49287200000000	0.00000000000000	
4.28998400000000	-42.75132900000000	735.49575000000004	45.07014400000000	0.05961300000000	0.00000000000000	0.09495200000000	-0.16772300000000	151.03361500000000	7.55179900000000	0.34504400000000	0.00000000000000	-0.06648300000000	0.00000000000000	13.55441600000000	0.00000000000000	0.00000000000000	5.61840600000000	0.00000000000000	
4.29164700000000	-43.32794700000000	731.98828900000001	44.41455600000000	0.05903000000000	0.00000000000000	0.09477700000000	0.56372300000000	156.69269800000001	7.54946100000000	0.34551200000000	0.00000000000000	-0.06662500000000	0.00000000000000	13.50607700000000	0.00000000000000	0.00000000000000	5.73727500000000	0.00000000000000	
4.29331400000000	-43.91581400000000	728.36417500000005	43.74155400000000	0.05844200000000	0.00000000000000	0.09460000000000	1.33337800000000	162.42141400000000	7.52727800000000	0.34593100000000	0.00000000000000	-0.06676900000000	0.00000000000000	13.45912200000000	0.00000000000000	0.00000000000000	5.84833500000000	0.00000000000000	
4.29498300000000	-44.51414200000000	724.62090100000000	43.05177200000000	0.05784800000000	0.00000000000000	0.09442100000000	2.14270900000000	168.20403200000001	7.48350400000000	0.34630300000000	0.00000000000000	-0.06691600000000	0.00000000000000	13.41352000000000	0.00000000000000	0.00000000000000	5.95052500000000	0.00000000000000	
4.29665400000000	-45.12207500000000	720.75596399999995	42.34587300000000	0.05724800000000	0.00000000000000	0.09424000000000	2.99265400000000	174.02686600000001	7.41663900000000	0.34663000000000	0.00000000000000	-0.06706400000000	0.00000000000000	13.36923700000000	0.00000000000000	0.00000000000000	6.04290600000000	0.00000000000000	
